<mxfile host="app.diagrams.net" agent="Mozilla/5.0 (X11; Ubuntu; Linux x86_64; rv:136.0) Gecko/20100101 Firefox/136.0" version="26.1.0" pages="2">
  <diagram name="Базовая упрощённая архитектура" id="5T3FNIGA8QtGTpp4r55X">
    <mxGraphModel dx="1434" dy="822" grid="1" gridSize="10" guides="1" tooltips="1" connect="1" arrows="1" fold="1" page="1" pageScale="1" pageWidth="1169" pageHeight="827" math="0" shadow="0">
      <root>
        <mxCell id="0" />
        <mxCell id="1" parent="0" />
        <mxCell id="Hhv3Qw_9wy92abbUr4UO-31" value="" style="rounded=0;whiteSpace=wrap;html=1;" vertex="1" parent="1">
          <mxGeometry x="300" y="305" width="570" height="310" as="geometry" />
        </mxCell>
        <mxCell id="Hhv3Qw_9wy92abbUr4UO-32" style="edgeStyle=orthogonalEdgeStyle;rounded=0;orthogonalLoop=1;jettySize=auto;html=1;exitX=0.25;exitY=1;exitDx=0;exitDy=0;entryX=0.25;entryY=0;entryDx=0;entryDy=0;" edge="1" parent="1" source="Hhv3Qw_9wy92abbUr4UO-34" target="Hhv3Qw_9wy92abbUr4UO-39">
          <mxGeometry relative="1" as="geometry" />
        </mxCell>
        <mxCell id="Hhv3Qw_9wy92abbUr4UO-34" value="Диспетчерская" style="rounded=0;whiteSpace=wrap;html=1;" vertex="1" parent="1">
          <mxGeometry x="520" y="190" width="120" height="60" as="geometry" />
        </mxCell>
        <mxCell id="Hhv3Qw_9wy92abbUr4UO-35" style="edgeStyle=orthogonalEdgeStyle;rounded=0;orthogonalLoop=1;jettySize=auto;html=1;exitX=0.25;exitY=1;exitDx=0;exitDy=0;entryX=0.25;entryY=0;entryDx=0;entryDy=0;" edge="1" parent="1" source="Hhv3Qw_9wy92abbUr4UO-39" target="Hhv3Qw_9wy92abbUr4UO-48">
          <mxGeometry relative="1" as="geometry" />
        </mxCell>
        <mxCell id="Hhv3Qw_9wy92abbUr4UO-37" style="edgeStyle=orthogonalEdgeStyle;rounded=0;orthogonalLoop=1;jettySize=auto;html=1;exitX=0.75;exitY=0;exitDx=0;exitDy=0;entryX=0.75;entryY=1;entryDx=0;entryDy=0;" edge="1" parent="1" source="Hhv3Qw_9wy92abbUr4UO-39" target="Hhv3Qw_9wy92abbUr4UO-34">
          <mxGeometry relative="1" as="geometry" />
        </mxCell>
        <mxCell id="Hhv3Qw_9wy92abbUr4UO-39" value="1. Связь" style="rounded=0;whiteSpace=wrap;html=1;" vertex="1" parent="1">
          <mxGeometry x="520" y="320" width="120" height="60" as="geometry" />
        </mxCell>
        <mxCell id="Hhv3Qw_9wy92abbUr4UO-40" style="edgeStyle=orthogonalEdgeStyle;rounded=0;orthogonalLoop=1;jettySize=auto;html=1;entryX=0.5;entryY=0;entryDx=0;entryDy=0;" edge="1" parent="1" source="Hhv3Qw_9wy92abbUr4UO-41" target="Hhv3Qw_9wy92abbUr4UO-34">
          <mxGeometry relative="1" as="geometry" />
        </mxCell>
        <mxCell id="Hhv3Qw_9wy92abbUr4UO-41" value="Оператор" style="shape=umlActor;verticalLabelPosition=bottom;verticalAlign=top;html=1;outlineConnect=0;" vertex="1" parent="1">
          <mxGeometry x="565" y="80" width="30" height="60" as="geometry" />
        </mxCell>
        <mxCell id="Hhv3Qw_9wy92abbUr4UO-42" style="edgeStyle=orthogonalEdgeStyle;rounded=0;orthogonalLoop=1;jettySize=auto;html=1;exitX=0.75;exitY=0;exitDx=0;exitDy=0;entryX=0.75;entryY=1;entryDx=0;entryDy=0;" edge="1" parent="1" source="Hhv3Qw_9wy92abbUr4UO-48" target="Hhv3Qw_9wy92abbUr4UO-39">
          <mxGeometry relative="1" as="geometry" />
        </mxCell>
        <mxCell id="Hhv3Qw_9wy92abbUr4UO-44" style="edgeStyle=orthogonalEdgeStyle;rounded=0;orthogonalLoop=1;jettySize=auto;html=1;exitX=0.25;exitY=1;exitDx=0;exitDy=0;entryX=0.5;entryY=0;entryDx=0;entryDy=0;" edge="1" parent="1" source="Hhv3Qw_9wy92abbUr4UO-48" target="Hhv3Qw_9wy92abbUr4UO-56">
          <mxGeometry relative="1" as="geometry" />
        </mxCell>
        <mxCell id="Hhv3Qw_9wy92abbUr4UO-46" style="edgeStyle=orthogonalEdgeStyle;rounded=0;orthogonalLoop=1;jettySize=auto;html=1;exitX=0.75;exitY=1;exitDx=0;exitDy=0;entryX=0.5;entryY=0;entryDx=0;entryDy=0;" edge="1" parent="1" source="Hhv3Qw_9wy92abbUr4UO-48" target="Hhv3Qw_9wy92abbUr4UO-55">
          <mxGeometry relative="1" as="geometry" />
        </mxCell>
        <mxCell id="Hhv3Qw_9wy92abbUr4UO-48" value="3. Система управления" style="rounded=0;whiteSpace=wrap;html=1;" vertex="1" parent="1">
          <mxGeometry x="520" y="430" width="120" height="60" as="geometry" />
        </mxCell>
        <mxCell id="G3MZJOcycGYMYkx9Pufp-1" value="" style="edgeStyle=orthogonalEdgeStyle;rounded=0;orthogonalLoop=1;jettySize=auto;html=1;" edge="1" parent="1" source="Hhv3Qw_9wy92abbUr4UO-51" target="Hhv3Qw_9wy92abbUr4UO-48">
          <mxGeometry relative="1" as="geometry" />
        </mxCell>
        <mxCell id="Hhv3Qw_9wy92abbUr4UO-51" value="4. Навигация" style="rounded=0;whiteSpace=wrap;html=1;" vertex="1" parent="1">
          <mxGeometry x="730" y="430" width="120" height="60" as="geometry" />
        </mxCell>
        <mxCell id="Hhv3Qw_9wy92abbUr4UO-52" value="" style="edgeStyle=orthogonalEdgeStyle;rounded=0;orthogonalLoop=1;jettySize=auto;html=1;" edge="1" parent="1" source="Hhv3Qw_9wy92abbUr4UO-54" target="Hhv3Qw_9wy92abbUr4UO-48">
          <mxGeometry relative="1" as="geometry" />
        </mxCell>
        <mxCell id="Hhv3Qw_9wy92abbUr4UO-54" value="2. Датчики" style="rounded=0;whiteSpace=wrap;html=1;" vertex="1" parent="1">
          <mxGeometry x="310" y="430" width="120" height="60" as="geometry" />
        </mxCell>
        <mxCell id="Hhv3Qw_9wy92abbUr4UO-55" value="6. Приводы движения" style="rounded=0;whiteSpace=wrap;html=1;" vertex="1" parent="1">
          <mxGeometry x="620" y="540" width="120" height="60" as="geometry" />
        </mxCell>
        <mxCell id="Hhv3Qw_9wy92abbUr4UO-56" value="5. Приводы бура" style="rounded=0;whiteSpace=wrap;html=1;" vertex="1" parent="1">
          <mxGeometry x="430" y="540" width="120" height="60" as="geometry" />
        </mxCell>
        <mxCell id="Hhv3Qw_9wy92abbUr4UO-57" value="АРПБТ" style="text;html=1;align=center;verticalAlign=middle;whiteSpace=wrap;rounded=0;" vertex="1" parent="1">
          <mxGeometry x="800" y="310" width="60" height="30" as="geometry" />
        </mxCell>
      </root>
    </mxGraphModel>
  </diagram>
  <diagram id="7YAJsR7aD-VW1yzLmkRK" name="Диаграмма потоков данных">
    <mxGraphModel dx="2074" dy="1150" grid="1" gridSize="10" guides="1" tooltips="1" connect="1" arrows="1" fold="1" page="1" pageScale="1" pageWidth="1169" pageHeight="827" math="0" shadow="0">
      <root>
        <mxCell id="0" />
        <mxCell id="1" parent="0" />
        <mxCell id="qhFsJq_dT3QI4Ff6MZLv-1" value="" style="rounded=0;whiteSpace=wrap;html=1;" vertex="1" parent="1">
          <mxGeometry x="290" y="295" width="570" height="310" as="geometry" />
        </mxCell>
        <mxCell id="qhFsJq_dT3QI4Ff6MZLv-2" style="edgeStyle=orthogonalEdgeStyle;rounded=0;orthogonalLoop=1;jettySize=auto;html=1;exitX=0.25;exitY=1;exitDx=0;exitDy=0;entryX=0.25;entryY=0;entryDx=0;entryDy=0;" edge="1" parent="1" source="qhFsJq_dT3QI4Ff6MZLv-3" target="qhFsJq_dT3QI4Ff6MZLv-6">
          <mxGeometry relative="1" as="geometry" />
        </mxCell>
        <mxCell id="_No--DG85sOoKEwe_KXn-7" value="Задание&lt;br&gt;Команды" style="edgeLabel;html=1;align=center;verticalAlign=middle;resizable=0;points=[];" vertex="1" connectable="0" parent="qhFsJq_dT3QI4Ff6MZLv-2">
          <mxGeometry x="-0.2" y="-2" relative="1" as="geometry">
            <mxPoint as="offset" />
          </mxGeometry>
        </mxCell>
        <mxCell id="qhFsJq_dT3QI4Ff6MZLv-3" value="Диспетчерская" style="rounded=0;whiteSpace=wrap;html=1;" vertex="1" parent="1">
          <mxGeometry x="510" y="180" width="120" height="60" as="geometry" />
        </mxCell>
        <mxCell id="qhFsJq_dT3QI4Ff6MZLv-4" style="edgeStyle=orthogonalEdgeStyle;rounded=0;orthogonalLoop=1;jettySize=auto;html=1;exitX=0.25;exitY=1;exitDx=0;exitDy=0;entryX=0.25;entryY=0;entryDx=0;entryDy=0;" edge="1" parent="1" source="qhFsJq_dT3QI4Ff6MZLv-6" target="qhFsJq_dT3QI4Ff6MZLv-12">
          <mxGeometry relative="1" as="geometry" />
        </mxCell>
        <mxCell id="_No--DG85sOoKEwe_KXn-10" value="Задание&lt;br&gt;Команды" style="edgeLabel;html=1;align=center;verticalAlign=middle;resizable=0;points=[];" vertex="1" connectable="0" parent="qhFsJq_dT3QI4Ff6MZLv-4">
          <mxGeometry x="-0.2" y="-1" relative="1" as="geometry">
            <mxPoint as="offset" />
          </mxGeometry>
        </mxCell>
        <mxCell id="qhFsJq_dT3QI4Ff6MZLv-5" style="edgeStyle=orthogonalEdgeStyle;rounded=0;orthogonalLoop=1;jettySize=auto;html=1;exitX=0.75;exitY=0;exitDx=0;exitDy=0;entryX=0.75;entryY=1;entryDx=0;entryDy=0;" edge="1" parent="1" source="qhFsJq_dT3QI4Ff6MZLv-6" target="qhFsJq_dT3QI4Ff6MZLv-3">
          <mxGeometry relative="1" as="geometry" />
        </mxCell>
        <mxCell id="_No--DG85sOoKEwe_KXn-8" value="Телеметрия" style="edgeLabel;html=1;align=center;verticalAlign=middle;resizable=0;points=[];" vertex="1" connectable="0" parent="qhFsJq_dT3QI4Ff6MZLv-5">
          <mxGeometry x="0.04" y="2" relative="1" as="geometry">
            <mxPoint as="offset" />
          </mxGeometry>
        </mxCell>
        <mxCell id="qhFsJq_dT3QI4Ff6MZLv-6" value="1. Связь" style="rounded=0;whiteSpace=wrap;html=1;" vertex="1" parent="1">
          <mxGeometry x="510" y="310" width="120" height="60" as="geometry" />
        </mxCell>
        <mxCell id="qhFsJq_dT3QI4Ff6MZLv-7" style="edgeStyle=orthogonalEdgeStyle;rounded=0;orthogonalLoop=1;jettySize=auto;html=1;entryX=0.5;entryY=0;entryDx=0;entryDy=0;" edge="1" parent="1" source="qhFsJq_dT3QI4Ff6MZLv-8" target="qhFsJq_dT3QI4Ff6MZLv-3">
          <mxGeometry relative="1" as="geometry" />
        </mxCell>
        <mxCell id="qhFsJq_dT3QI4Ff6MZLv-8" value="Оператор" style="shape=umlActor;verticalLabelPosition=bottom;verticalAlign=top;html=1;outlineConnect=0;" vertex="1" parent="1">
          <mxGeometry x="555" y="70" width="30" height="60" as="geometry" />
        </mxCell>
        <mxCell id="qhFsJq_dT3QI4Ff6MZLv-9" style="edgeStyle=orthogonalEdgeStyle;rounded=0;orthogonalLoop=1;jettySize=auto;html=1;exitX=0.75;exitY=0;exitDx=0;exitDy=0;entryX=0.75;entryY=1;entryDx=0;entryDy=0;" edge="1" parent="1" source="qhFsJq_dT3QI4Ff6MZLv-12" target="qhFsJq_dT3QI4Ff6MZLv-6">
          <mxGeometry relative="1" as="geometry" />
        </mxCell>
        <mxCell id="_No--DG85sOoKEwe_KXn-9" value="Телеметрия" style="edgeLabel;html=1;align=center;verticalAlign=middle;resizable=0;points=[];" vertex="1" connectable="0" parent="qhFsJq_dT3QI4Ff6MZLv-9">
          <mxGeometry x="0.08" y="-1" relative="1" as="geometry">
            <mxPoint as="offset" />
          </mxGeometry>
        </mxCell>
        <mxCell id="qhFsJq_dT3QI4Ff6MZLv-10" style="edgeStyle=orthogonalEdgeStyle;rounded=0;orthogonalLoop=1;jettySize=auto;html=1;exitX=0.25;exitY=1;exitDx=0;exitDy=0;entryX=0.5;entryY=0;entryDx=0;entryDy=0;" edge="1" parent="1" source="qhFsJq_dT3QI4Ff6MZLv-12" target="qhFsJq_dT3QI4Ff6MZLv-18">
          <mxGeometry relative="1" as="geometry" />
        </mxCell>
        <mxCell id="_No--DG85sOoKEwe_KXn-2" value="Команды" style="edgeLabel;html=1;align=center;verticalAlign=middle;resizable=0;points=[];" vertex="1" connectable="0" parent="qhFsJq_dT3QI4Ff6MZLv-10">
          <mxGeometry x="-0.2727" y="1" relative="1" as="geometry">
            <mxPoint x="-15" as="offset" />
          </mxGeometry>
        </mxCell>
        <mxCell id="qhFsJq_dT3QI4Ff6MZLv-11" style="edgeStyle=orthogonalEdgeStyle;rounded=0;orthogonalLoop=1;jettySize=auto;html=1;exitX=0.75;exitY=1;exitDx=0;exitDy=0;entryX=0.5;entryY=0;entryDx=0;entryDy=0;" edge="1" parent="1" source="qhFsJq_dT3QI4Ff6MZLv-12" target="qhFsJq_dT3QI4Ff6MZLv-17">
          <mxGeometry relative="1" as="geometry" />
        </mxCell>
        <mxCell id="_No--DG85sOoKEwe_KXn-4" value="Команды" style="edgeLabel;html=1;align=center;verticalAlign=middle;resizable=0;points=[];" vertex="1" connectable="0" parent="qhFsJq_dT3QI4Ff6MZLv-11">
          <mxGeometry x="0.0667" y="-2" relative="1" as="geometry">
            <mxPoint as="offset" />
          </mxGeometry>
        </mxCell>
        <mxCell id="qhFsJq_dT3QI4Ff6MZLv-12" value="3. Система управления" style="rounded=0;whiteSpace=wrap;html=1;" vertex="1" parent="1">
          <mxGeometry x="510" y="420" width="120" height="60" as="geometry" />
        </mxCell>
        <mxCell id="zvuR6y7t_P8hB81T9z4g-1" style="edgeStyle=orthogonalEdgeStyle;rounded=0;orthogonalLoop=1;jettySize=auto;html=1;" edge="1" parent="1" source="qhFsJq_dT3QI4Ff6MZLv-14" target="qhFsJq_dT3QI4Ff6MZLv-12">
          <mxGeometry relative="1" as="geometry" />
        </mxCell>
        <mxCell id="zvuR6y7t_P8hB81T9z4g-2" value="Координаты" style="edgeLabel;html=1;align=center;verticalAlign=middle;resizable=0;points=[];" vertex="1" connectable="0" parent="zvuR6y7t_P8hB81T9z4g-1">
          <mxGeometry x="-0.0222" y="-4" relative="1" as="geometry">
            <mxPoint as="offset" />
          </mxGeometry>
        </mxCell>
        <mxCell id="qhFsJq_dT3QI4Ff6MZLv-14" value="4. Навигация" style="rounded=0;whiteSpace=wrap;html=1;" vertex="1" parent="1">
          <mxGeometry x="720" y="420" width="120" height="60" as="geometry" />
        </mxCell>
        <mxCell id="qhFsJq_dT3QI4Ff6MZLv-15" value="" style="edgeStyle=orthogonalEdgeStyle;rounded=0;orthogonalLoop=1;jettySize=auto;html=1;" edge="1" parent="1" source="qhFsJq_dT3QI4Ff6MZLv-16" target="qhFsJq_dT3QI4Ff6MZLv-12">
          <mxGeometry relative="1" as="geometry" />
        </mxCell>
        <mxCell id="_No--DG85sOoKEwe_KXn-1" value="Измерения" style="edgeLabel;html=1;align=center;verticalAlign=middle;resizable=0;points=[];" vertex="1" connectable="0" parent="qhFsJq_dT3QI4Ff6MZLv-15">
          <mxGeometry x="0.0857" y="-2" relative="1" as="geometry">
            <mxPoint x="-9" y="-2" as="offset" />
          </mxGeometry>
        </mxCell>
        <mxCell id="qhFsJq_dT3QI4Ff6MZLv-16" value="2. Датчики" style="rounded=0;whiteSpace=wrap;html=1;" vertex="1" parent="1">
          <mxGeometry x="300" y="420" width="120" height="60" as="geometry" />
        </mxCell>
        <mxCell id="qhFsJq_dT3QI4Ff6MZLv-17" value="6. Приводы движения" style="rounded=0;whiteSpace=wrap;html=1;" vertex="1" parent="1">
          <mxGeometry x="610" y="530" width="120" height="60" as="geometry" />
        </mxCell>
        <mxCell id="qhFsJq_dT3QI4Ff6MZLv-18" value="5. Приводы бура" style="rounded=0;whiteSpace=wrap;html=1;" vertex="1" parent="1">
          <mxGeometry x="420" y="530" width="120" height="60" as="geometry" />
        </mxCell>
        <mxCell id="qhFsJq_dT3QI4Ff6MZLv-19" value="АРПБТ" style="text;html=1;align=center;verticalAlign=middle;whiteSpace=wrap;rounded=0;" vertex="1" parent="1">
          <mxGeometry x="790" y="300" width="60" height="30" as="geometry" />
        </mxCell>
      </root>
    </mxGraphModel>
  </diagram>
</mxfile>
